<?xml version="1.0" standalone="no"?>
<!DOCTYPE svg PUBLIC "-//W3C//DTD SVG 1.1//EN" "http://www.w3.org/Graphics/SVG/1.1/DTD/svg11.dtd">
<svg xmlns="http://www.w3.org/2000/svg">
<metadata>Copyright (C) 2016 by original authors @ fontello.com</metadata>
<defs>
<font id="tissot-icons" horiz-adv-x="1000" >
<font-face font-family="tissot-icons" font-weight="400" font-stretch="normal" units-per-em="1000" ascent="850" descent="-150" />
<missing-glyph horiz-adv-x="1000" />
<glyph glyph-name="ic-account" unicode="&#xe800;" d="M697 328c31 44 47 94 47 150v105c0 142-116 259-258 259-142 0-258-117-258-259v-105c0-56 19-111 53-153-178-39-273-172-273-381v-63h31l903 0 58 5v58c0 212-111 350-303 384z m-208 389c75 0 136-61 136-136v-106c0-75-61-136-136-136-75 0-136 61-136 136v108c0 75 61 134 136 134z m-86-500h203c158 0 247-73 266-214h-739c20 141 109 214 270 214z" horiz-adv-x="1000" />

<glyph glyph-name="ic-empty-cart" unicode="&#xe801;" d="M936 497c-50 195-225 342-436 342-211 0-386-145-436-339h-58v-650h997v647h-67z m-436 203c133 0 247-83 292-200h-581c42 114 156 200 289 200z m364-711h-720v369h720v-369z" horiz-adv-x="1000" />

<glyph glyph-name="ic-facebook" unicode="&#xe802;" d="M742 522h-156v103c0 39 25 47 45 47 16 0 111 0 111 0v170l-153 0c-170 0-208-125-208-209v-114h-98v-175h98c0-225 0-494 0-494h205c0 0 0 272 0 494h139l17 178z" horiz-adv-x="1000" />

<glyph glyph-name="ic-instagram" unicode="&#xe803;" d="M806 847h-612c-105 0-191-86-191-191v-203-409c0-105 86-191 191-191h612c105 0 191 86 191 191v409 203c0 105-86 191-191 191z m55-114l22 0v-22-147l-169 0 0 169 147 0z m-503-280c31 44 84 72 142 72s111-28 142-72c19-28 33-64 33-103 0-97-78-175-175-175-97 0-175 78-175 175 0 39 14 72 33 103z m542-409c0-52-42-94-94-94h-612c-52 0-94 42-94 94v409h147c-14-31-19-67-19-103 0-150 122-272 272-272 150 0 272 122 272 272 0 36-8 69-19 103h150v-409z" horiz-adv-x="1000" />

<glyph glyph-name="ic-language" unicode="&#xe804;" d="M989 344c0 267-217 484-481 489-2 0-5 0-8 0s-6 0-8 0c-264-5-481-222-481-489s217-483 481-488c2 0 5 0 8 0s6 0 8 0c267 2 481 222 481 488z m-906-44h159c2-53 8-106 19-150h-130c-25 44-42 97-48 150z m836 72h-158c-3 53-8 103-17 150h137c19-47 33-97 38-150z m-230 0h-153v150h133c12-47 17-100 20-150z m-153 220v164c47-23 86-84 114-162h-114z m-69 164v-164h-114c25 80 64 141 114 164z m0-234v-150h-153c3 50 8 103 19 150h134z m-225-150h-159c3 53 17 106 39 150h136c-8-47-14-97-16-150z m72-72h153v-150h-131c-14 47-19 100-22 150z m153-219v-148c-45 20-81 75-109 148h109z m69-148v148h108c-27-73-63-128-108-148z m0 217v150h153c-3-53-11-103-22-150h-131z m222 150h159c-6-53-23-106-48-150h-133c14 47 20 97 22 150z m78 292h-111c-17 52-39 100-64 139 70-28 131-78 175-139z m-494 139c-25-39-48-84-64-139h-111c41 61 102 111 175 139z m-167-650h106c16-48 36-89 58-123-64 25-120 67-164 123z m486-123c22 34 42 75 58 123h106c-44-56-100-98-164-123z" horiz-adv-x="1000" />

<glyph glyph-name="ic-securized" unicode="&#xe805;" d="M872 600h-744c-70 0-125-56-125-125v-497c0-70 55-125 125-125h744c70 0 125 55 125 125v497c0 69-55 125-125 125z m61-619c0-34-27-62-61-62h-744c-34 0-61 28-61 62v308h869v-308z m0 433h-866v61c0 33 27 61 61 61h744c34 0 61-28 61-61v-61z" horiz-adv-x="1000" />

<glyph glyph-name="ic-swiss-flag" unicode="&#xe806;" d="M0 606v-756h1000v756h-1000z m728-445h-167v-167h-125v167h-167v125h167v167h125v-167h167v-125z" horiz-adv-x="1000" />

<glyph glyph-name="ic-twitter" unicode="&#xe807;" d="M997 658c-36-16-75-27-116-33 41 25 75 64 88 111-38-22-83-39-127-50-36 39-89 64-148 64-111 0-202-92-202-203 0-16 2-30 5-47-172 14-322 94-422 217-17-31-28-64-28-103 0-70 36-133 92-170-33 0-64 12-92 25 0 0 0-2 0-2 0-98 70-181 164-200-17-6-36-9-53-9-14 0-25 0-39 3 25-80 100-139 189-142-69-55-158-86-252-86-17 0-34 0-48 3 89-58 198-92 311-92 375 0 578 309 578 578 0 9 0 17 0 25 39 36 72 70 100 111z" horiz-adv-x="1000" />

<glyph glyph-name="ic-vk" unicode="&#xe808;" d="M500 850c-275 0-500-222-500-500 0-275 222-500 500-500 275 0 500 222 500 500 0 275-222 500-500 500l0 0z m256-553c22-22 47-44 69-69 8-11 17-22 25-36 8-20 0-39-17-39l-102 0c-25-3-48 8-64 28-14 13-28 30-42 44-6 6-11 11-19 17-14 8-25 5-34-9-8-14-11-30-11-47 0-25-8-30-33-30-53-3-100 5-147 30-39 22-73 56-98 92-52 72-94 150-130 230-9 20-3 28 16 28 34 0 67 0 100 0 14 0 23-8 28-19 17-45 39-86 67-125 8-11 14-20 25-28 11-8 22-6 28 8 2 9 5 17 5 25 3 31 3 61-3 92-2 19-13 30-33 36-11 3-8 6-3 11 9 8 17 17 31 17h117c19-3 22-11 25-31l0-128c0-8 2-27 16-33 11-3 17 6 22 11 28 31 48 64 64 100 9 17 14 34 23 47 5 12 11 20 25 17l111 0c2 0 5 0 11 0 19-3 25-11 19-30-8-28-28-53-44-78-20-25-39-50-56-75-16-25-14-36 9-56l0 0z m0 0" horiz-adv-x="1000" />

<glyph glyph-name="ic-warranty" unicode="&#xe809;" d="M0 606v-756h1000v756h-1000z m464-650l-322 322 77 78 245-245 364 364 78-78-442-441z" horiz-adv-x="1000" />

<glyph glyph-name="ic-weibo" unicode="&#xe80a;" d="M500 850c-275 0-497-225-497-500 0-275 222-497 497-497 275 0 497 222 497 497 3 275-222 500-497 500l0 0z m-56-783c-144 0-294 69-294 186 0 61 39 130 106 197 88 89 191 128 230 89 17-17 20-47 8-83-5-17 17-9 17-9 72 31 133 31 156 0 11-16 11-41 0-69-6-14 2-14 11-17 41-14 86-42 86-97-3-86-128-197-320-197l0 0z m264 369c6 14 3 31-8 45-11 11-28 16-42 13v0c-11-2-25 6-27 17-3 11 5 25 16 28 31 5 64-3 86-28 23-25 28-58 20-89-3-11-17-19-31-14-11 3-19 14-14 28l0 0z m134-44c0 0 0 0 0 0-6-14-20-23-34-17-14 6-22 19-16 33v0c14 45 5 92-28 131-33 36-81 50-125 42-14-3-28 5-31 19-2 14 6 28 20 31h0c64 13 130-6 178-59 44-50 55-119 36-180l0 0z m0 0m-398-128c-5 3-16 0-19-8-3-6-3-14 6-17 8-3 16 0 19 8 6 6 3 14-6 17l0 0z m0 0m-27 119c-117-11-206-83-198-158 9-78 109-128 225-117 117 11 206 84 198 159-9 75-109 127-225 116l0 0z m102-180c-25-53-91-84-150-64-55 19-80 72-55 122 25 50 86 78 142 61 58-11 86-66 63-119l0 0z m0 0m-119 41c-17 9-42 0-53-16-11-17-5-39 11-47 20-9 42 0 53 16 14 20 8 39-11 47l0 0z m0 0" horiz-adv-x="1000" />

<glyph glyph-name="ic-youtube" unicode="&#xe80b;" d="M997 556c0 80-66 147-147 147h-694c-81 0-148-67-148-147v-398c0-80 67-147 148-147h694c81 0 147 67 147 147v398z m-594-367v375l283-186-283-189z" horiz-adv-x="1000" />

<glyph glyph-name="ic-pinterest" unicode="&#xe80c;" d="M553 844c-272 0-409-194-409-355 0-97 37-186 117-217 14-5 25 0 28 14 3 11 8 36 11 45 3 13 3 19-8 30-23 28-39 61-39 111 0 145 108 272 280 272 153 0 236-94 236-219 0-164-72-303-180-303-58 0-106 50-89 111 17 73 50 150 50 203 0 47-25 86-78 86-61 0-111-64-111-147 0-53 20-92 20-92s-62-264-73-311c-22-91-2-205-2-216 0-6 8-9 13-3 6 8 78 97 103 186 9 25 39 155 39 155 20-38 78-72 139-72 192 6 317 172 317 395 0 169-145 327-364 327z" horiz-adv-x="1000" />

<glyph glyph-name="ic-phone" unicode="&#xe80d;" d="M197 842v-986h620v986h-620z m436-848h-255v109h255v-109z m92 214h-436v548h439v-548z" horiz-adv-x="1000" />

<glyph glyph-name="ic-mail" unicode="&#xe80e;" d="M6 714v-728h988v728h-988z m816-83l-322-231-325 231h647z m-725-562v509l403-289 406 292v-512h-809z" horiz-adv-x="1000" />

<glyph glyph-name="speech-bubble-(3)" unicode="&#xe80f;" d="M692 819h-692v-494h107v-155l155 155h430m66 206v-272h-450v-223h430l156-155v155h106v495" horiz-adv-x="1000" />

<glyph glyph-name="youku-logo_6565eecc-a1e1-4e37-bcf2-f7f3d7d0caa9-(1)" unicode="&#xe810;" d="M209 511c-30 10-40-6-46-20l-51-119-47 119c-8 16-21 28-45 20-27-10-18-36-17-42l75-171-30-65c-4-8-11-33 16-43 27-11 38 5 47 22l114 257c0 0 15 30-16 42z m104-19c-58 0-105-46-105-103 0-56 40-103 105-103 70 0 105 47 105 103 0 58-48 103-105 103z m0-158c-26 0-46 24-46 54 0 30 20 55 46 55 26 0 46-25 46-55 0-31-20-54-46-54z m269 153c-17-1-26-11-27-31l0-96c-1-20-15-34-37-35-34-1-39 24-39 32l0 96c-1 19-9 29-26 30-19-1-29-13-30-32l0-95c0-12-1-73 95-72 53 1 91 30 94 78l0 96c-2 19-11 28-30 29z m389-2c-17-1-28-11-29-30v-96c-1-20-16-33-38-33-21 0-37 14-38 33l0 96c-1 20-10 30-27 30-20 0-29-11-30-30v-96c2-48 34-73 94-74 62 1 93 26 95 74v96c1 20-8 30-27 30z m-228-97l50 44c0 0 25 24 3 46-16 15-37 6-44 0l-74-70 0 50c0 18-10 28-30 28-20 0-29-10-30-28v-145c1-16 12-25 30-25 20 0 30 10 30 25l0 55c0 0 78-66 82-70 13-11 33-10 44 1 11 10 8 32-6 43l-55 46z" horiz-adv-x="1000" />

<glyph glyph-name="ic_flag_black_48px-(1)" unicode="&#xe819;" d="M208 683v-708h84v250h541v458h-625z m434-233l0 0v-42h-79v-79h-42l0 0h-42v79h-79v42l0 0v42h79v79h42l0 0h42v-79h79v-42z" horiz-adv-x="1000" />

<glyph glyph-name="ic_local_shipping_black_48px" unicode="&#xe81b;" d="M833 517h-125v166h-583c-46 0-83-37-83-83v-458h83c0-69 56-125 125-125s125 56 125 125h250c0-69 56-125 125-125s125 56 125 125h83v208l-125 167z m-583-438c-35 0-62 27-62 63s27 62 62 62 63-27 63-62-28-63-63-63z m563 375l81-104h-186v104h105z m-63-375c-35 0-62 27-62 63s27 62 62 62 63-27 63-62-28-63-63-63z" horiz-adv-x="1000" />

<glyph glyph-name="ic_looks_two_black_48px" unicode="&#xe81c;" d="M792 725h-584c-45 0-83-37-83-83v-584c0-45 38-83 83-83h584c46 0 83 38 83 83v584c0 46-37 83-83 83z m-167-333c0-46-37-84-83-84h-84v-83h167v-83h-250v166c0 46 38 84 83 84h84v83h-167v83h167c46 0 83-37 83-83v-83z" horiz-adv-x="1000" />

<glyph glyph-name="ic_new_releases_black_48px" unicode="&#xe81f;" d="M958 350l-102 117 15 154-150 33-79 134-142-63-142 60-79-133-150-33 15-154-102-115 102-117-15-154 150-33 79-134 142 63 142-60 79 133 150 33-15 154 102 115z m-514-194l-167 167 58 58 109-108 275 275 58-58-333-334z" horiz-adv-x="1000" />

<glyph glyph-name="ic_exit_to_app_black_48px-(1)" unicode="&#xe820;" d="M579 500l-58 58-208-208 208-208 58 58-106 108h402v84h-402l106 108z m-371-525h584c46 0 83 38 83 83v167h-83v-167h-584v584h584v-167h83v167c0 46-37 83-83 83h-584c-45 0-83-37-83-83v-584c0-45 38-83 83-83z" horiz-adv-x="1000" />

<glyph glyph-name="ic_verified_user_black_48px(1)" unicode="&#xe821;" d="M500 808l-375-166v-250c0-232 160-448 375-500 215 52 375 268 375 500v250l-375 166z m-83-666l-167 166 58 59 109-109 275 275 58-58-333-333z" horiz-adv-x="1000" />
</font>
</defs>
</svg>
